<?xml version="1.0" encoding="UTF-8" standalone="no"?>
<!DOCTYPE svg PUBLIC "-//W3C//DTD SVG 1.1//EN" "http://www.w3.org/Graphics/SVG/1.1/DTD/svg11.dtd">
<svg width="100%" height="100%" viewBox="0 0 512 512" version="1.1" xmlns="http://www.w3.org/2000/svg" xmlns:xlink="http://www.w3.org/1999/xlink" xml:space="preserve" xmlns:serif="http://www.serif.com/" style="fill-rule:evenodd;clip-rule:evenodd;stroke-linejoin:round;stroke-miterlimit:1.5;">
    <g transform="matrix(2.72878,0,0,2.72878,-186.839,-543.562)">
        <path d="M79.856,377.901L79.856,246.66C79.856,221.418 86.795,207.281 105.176,207.281C123.557,207.281 135.422,219.301 135.422,245.601L126.421,262.077" style="fill:none;stroke:black;stroke-width:5.13px;"/>
    </g>
    <g transform="matrix(2.41629,1.26799,-1.26799,2.41629,213.531,-620.859)">
        <path d="M147.749,291.592C147.749,298.695 141.982,304.462 134.879,304.462L116.59,304.462C109.487,304.462 103.72,298.695 103.72,291.592C103.72,284.489 109.487,278.722 116.59,278.722L134.879,278.722C141.982,278.722 147.749,284.489 147.749,291.592Z"/>
    </g>
    <g transform="matrix(3.4286,0.129333,-0.126239,3.34658,-240.663,-726.091)">
        <path d="M121.357,262.729L128.815,266.494L129.667,274.449L117.592,268.625L121.357,262.729Z"/>
    </g>
    <g transform="matrix(2.20332,0.468186,-0.468186,2.20332,29.5585,-459.672)">
        <path d="M148.339,278.849C149.108,280.342 149.542,282.034 149.542,283.828C149.542,286.791 148.356,289.48 146.433,291.444C145.697,288.446 143.61,285.14 140.454,282.406C136.942,279.363 132.917,277.731 129.635,277.723C131.595,274.836 134.904,272.938 138.652,272.938C139.84,272.938 140.984,273.128 142.055,273.481C141.447,274.263 142.31,276.063 144.01,277.535C145.735,279.028 147.671,279.62 148.332,278.857C148.334,278.854 148.336,278.852 148.339,278.849Z"/>
    </g>
    <g transform="matrix(-2.20332,0.468186,0.468186,2.20332,483.269,-459.672)">
        <path d="M148.339,278.849C149.108,280.342 149.542,282.034 149.542,283.828C149.542,286.791 148.356,289.48 146.433,291.444C145.697,288.446 143.61,285.14 140.454,282.406C136.942,279.363 132.917,277.731 129.635,277.723C131.595,274.836 134.904,272.938 138.652,272.938C139.84,272.938 140.984,273.128 142.055,273.481C141.447,274.263 142.31,276.063 144.01,277.535C145.735,279.028 147.671,279.62 148.332,278.857C148.334,278.854 148.336,278.852 148.339,278.849Z"/>
    </g>
    <g transform="matrix(-2.72878,0,0,2.72878,697.724,-543.562)">
        <path d="M79.856,377.901C79.856,377.901 78.595,258.796 79.856,246.66C80.279,242.586 77.904,207.281 96.285,207.281C114.666,207.281 135.422,219.301 135.422,245.601L126.421,262.077" style="fill:none;stroke:black;stroke-width:5.13px;"/>
    </g>
    <g transform="matrix(-2.41629,1.26799,1.26799,2.41629,297.353,-620.859)">
        <path d="M147.749,291.592C147.749,298.695 141.982,304.462 134.879,304.462L116.59,304.462C109.487,304.462 103.72,298.695 103.72,291.592C103.72,284.489 109.487,278.722 116.59,278.722L134.879,278.722C141.982,278.722 147.749,284.489 147.749,291.592Z"/>
    </g>
    <g transform="matrix(-3.4286,0.129333,0.126239,3.34658,751.547,-726.091)">
        <path d="M121.357,262.729L128.815,266.494L129.667,274.449L117.592,268.625L121.357,262.729Z"/>
    </g>
    <g transform="matrix(0.89075,0.514275,-0.514275,0.89075,5.10777,-371.266)">
        <g transform="matrix(0.0278937,0,0,0.0278937,380.447,411)">
            <path d="M329.546,1391.55L208.19,1512.91L86.833,1391.55L208.19,1270.19L329.546,1391.55Z" style="fill:white;"/>
        </g>
        <g transform="matrix(0.0278937,0,0,0.0278937,380.447,411)">
            <path d="M1185.77,780.505L1041.85,924.426L897.904,780.48L1041.83,636.559L1185.77,780.505Z" style="fill:white;"/>
        </g>
        <g transform="matrix(0.0278937,0,0,0.0278937,380.447,411)">
            <path d="M1185.77,2002.73L1041.85,2146.65L897.904,2002.71L1041.83,1858.79L1185.77,2002.73Z" style="fill:white;"/>
        </g>
        <g transform="matrix(0.0278937,0,0,0.0278937,380.447,411)">
            <rect x="208.19" y="1270.2" width="707.915" height="242.714" style="fill:white;"/>
        </g>
        <g transform="matrix(0.0278937,0,0,0.0278937,380.447,411)">
            <rect x="897.905" y="780.48" width="287.855" height="1222.08" style="fill:white;"/>
        </g>
        <g transform="matrix(0.0278937,0,0,0.0278937,380.447,411)">
            <path d="M1437.46,1264.24L1437.46,1518.87C1437.46,1573.19 1393.36,1617.29 1339.04,1617.29C1284.72,1617.29 1240.62,1573.19 1240.62,1518.87L1240.62,1264.24C1240.62,1209.92 1284.72,1165.82 1339.04,1165.82C1393.36,1165.82 1437.46,1209.92 1437.46,1264.24Z" style="fill:white;"/>
        </g>
        <g transform="matrix(0.0278937,0,0,0.0278937,380.447,411)">
            <path d="M1687.32,1123.38L1687.32,1659.73C1687.32,1714.05 1643.22,1758.15 1588.9,1758.15C1534.58,1758.15 1490.48,1714.05 1490.48,1659.73L1490.48,1123.38C1490.48,1069.06 1534.58,1024.96 1588.9,1024.96C1643.22,1024.96 1687.32,1069.06 1687.32,1123.38Z" style="fill:white;"/>
        </g>
        <g transform="matrix(0.0278937,0,0,0.0278937,380.447,411)">
            <path d="M1936.63,950.01L1936.63,1833.1C1936.63,1887.42 1892.53,1931.52 1838.21,1931.52C1783.89,1931.52 1739.79,1887.42 1739.79,1833.1L1739.79,950.01C1739.79,895.69 1783.89,851.588 1838.21,851.588C1892.53,851.588 1936.63,895.69 1936.63,950.01Z" style="fill:white;"/>
        </g>
        <g transform="matrix(0.0278937,0,0,0.0278937,380.447,411)">
            <path d="M2188.6,1134.21L2188.6,1648.89C2188.6,1703.21 2144.5,1747.31 2090.18,1747.31C2035.86,1747.31 1991.76,1703.21 1991.76,1648.89L1991.76,1134.21C1991.76,1079.89 2035.86,1035.79 2090.18,1035.79C2144.5,1035.79 2188.6,1079.89 2188.6,1134.21Z" style="fill:white;"/>
        </g>
        <g transform="matrix(0.0278937,0,0,0.0278937,380.447,411)">
            <path d="M2434.96,1276.88L2434.96,1506.23C2434.96,1560.55 2390.86,1604.65 2336.54,1604.65C2282.22,1604.65 2238.12,1560.55 2238.12,1506.23L2238.12,1276.88C2238.12,1222.56 2282.22,1178.46 2336.54,1178.46C2390.86,1178.46 2434.96,1222.56 2434.96,1276.88Z" style="fill:white;"/>
        </g>
        <g transform="matrix(0.0278937,0,0,0.0278937,380.447,411)">
            <path d="M2687.04,1391.55C2687.04,1444.38 2644.15,1487.26 2591.33,1487.26L2585.91,1487.26C2533.08,1487.26 2490.2,1444.38 2490.2,1391.55C2490.2,1338.73 2533.08,1295.84 2585.91,1295.84L2591.33,1295.84C2644.15,1295.84 2687.04,1338.73 2687.04,1391.55Z" style="fill:white;"/>
        </g>
    </g>
    <g transform="matrix(-0.89075,0.514275,0.514275,0.89075,503.861,-371.266)">
        <g transform="matrix(0.0278937,0,0,0.0278937,380.447,411)">
            <path d="M329.546,1391.55L208.19,1512.91L86.833,1391.55L208.19,1270.19L329.546,1391.55Z" style="fill:white;"/>
        </g>
        <g transform="matrix(0.0278937,0,0,0.0278937,380.447,411)">
            <path d="M1185.77,780.505L1041.85,924.426L897.904,780.48L1041.83,636.559L1185.77,780.505Z" style="fill:white;"/>
        </g>
        <g transform="matrix(0.0278937,0,0,0.0278937,380.447,411)">
            <path d="M1185.77,2002.73L1041.85,2146.65L897.904,2002.71L1041.83,1858.79L1185.77,2002.73Z" style="fill:white;"/>
        </g>
        <g transform="matrix(0.0278937,0,0,0.0278937,380.447,411)">
            <rect x="208.19" y="1270.2" width="707.915" height="242.714" style="fill:white;"/>
        </g>
        <g transform="matrix(0.0278937,0,0,0.0278937,380.447,411)">
            <rect x="897.905" y="780.48" width="287.855" height="1222.08" style="fill:white;"/>
        </g>
        <g transform="matrix(0.0278937,0,0,0.0278937,380.447,411)">
            <path d="M1437.46,1264.24L1437.46,1518.87C1437.46,1573.19 1393.36,1617.29 1339.04,1617.29C1284.72,1617.29 1240.62,1573.19 1240.62,1518.87L1240.62,1264.24C1240.62,1209.92 1284.72,1165.82 1339.04,1165.82C1393.36,1165.82 1437.46,1209.92 1437.46,1264.24Z" style="fill:white;"/>
        </g>
        <g transform="matrix(0.0278937,0,0,0.0278937,380.447,411)">
            <path d="M1687.32,1123.38L1687.32,1659.73C1687.32,1714.05 1643.22,1758.15 1588.9,1758.15C1534.58,1758.15 1490.48,1714.05 1490.48,1659.73L1490.48,1123.38C1490.48,1069.06 1534.58,1024.96 1588.9,1024.96C1643.22,1024.96 1687.32,1069.06 1687.32,1123.38Z" style="fill:white;"/>
        </g>
        <g transform="matrix(0.0278937,0,0,0.0278937,380.447,411)">
            <path d="M1936.63,950.01L1936.63,1833.1C1936.63,1887.42 1892.53,1931.52 1838.21,1931.52C1783.89,1931.52 1739.79,1887.42 1739.79,1833.1L1739.79,950.01C1739.79,895.69 1783.89,851.588 1838.21,851.588C1892.53,851.588 1936.63,895.69 1936.63,950.01Z" style="fill:white;"/>
        </g>
        <g transform="matrix(0.0278937,0,0,0.0278937,380.447,411)">
            <path d="M2188.6,1134.21L2188.6,1648.89C2188.6,1703.21 2144.5,1747.31 2090.18,1747.31C2035.86,1747.31 1991.76,1703.21 1991.76,1648.89L1991.76,1134.21C1991.76,1079.89 2035.86,1035.79 2090.18,1035.79C2144.5,1035.79 2188.6,1079.89 2188.6,1134.21Z" style="fill:white;"/>
        </g>
        <g transform="matrix(0.0278937,0,0,0.0278937,380.447,411)">
            <path d="M2434.96,1276.88L2434.96,1506.23C2434.96,1560.55 2390.86,1604.65 2336.54,1604.65C2282.22,1604.65 2238.12,1560.55 2238.12,1506.23L2238.12,1276.88C2238.12,1222.56 2282.22,1178.46 2336.54,1178.46C2390.86,1178.46 2434.96,1222.56 2434.96,1276.88Z" style="fill:white;"/>
        </g>
        <g transform="matrix(0.0278937,0,0,0.0278937,380.447,411)">
            <path d="M2687.04,1391.55C2687.04,1444.38 2644.15,1487.26 2591.33,1487.26L2585.91,1487.26C2533.08,1487.26 2490.2,1444.38 2490.2,1391.55C2490.2,1338.73 2533.08,1295.84 2585.91,1295.84L2591.33,1295.84C2644.15,1295.84 2687.04,1338.73 2687.04,1391.55Z" style="fill:white;"/>
        </g>
    </g>
</svg>
